G04 ocdcircuit*
%FSLAX46Y46*%
%MOMM*%
%ADD10C,0.400*%
D10*
X90.5000Y25.0000D02*
X84.7500Y25.0000D01*
X84.7500Y25.0000D02*
X84.7500Y32.0000D01*
X84.7500Y32.0000D02*
X101.0000Y32.0000D01*
X101.0000Y32.0000D02*
X101.0000Y30.5000D01*
X101.0000Y30.5000D02*
X99.7500Y30.5000D01*
X118.5000Y25.0000D02*
X112.7500Y25.0000D01*
X112.7500Y25.0000D02*
X112.7500Y32.0000D01*
X112.7500Y32.0000D02*
X129.0000Y32.0000D01*
X129.0000Y32.0000D02*
X129.0000Y30.5000D01*
X129.0000Y30.5000D02*
X127.7500Y30.5000D01*
X62.5000Y25.0000D02*
X56.7500Y25.0000D01*
X56.7500Y25.0000D02*
X56.7500Y32.0000D01*
X56.7500Y32.0000D02*
X73.0000Y32.0000D01*
X73.0000Y32.0000D02*
X73.0000Y30.5000D01*
X73.0000Y30.5000D02*
X71.7500Y30.5000D01*
X93.0000Y23.0500D02*
X93.0000Y13.5500D01*
X93.0000Y13.5500D02*
X95.5400Y13.5500D01*
X90.5000Y27.0500D02*
X90.5000Y13.5500D01*
X90.5000Y13.5500D02*
X100.6200Y13.5500D01*
X121.0000Y23.0500D02*
X121.0000Y13.5500D01*
X121.0000Y13.5500D02*
X123.5400Y13.5500D01*
X121.5000Y23.0000D02*
X121.5000Y20.5000D01*
X121.5000Y20.5000D02*
X125.7500Y20.5000D01*
X121.5000Y23.0500D02*
X125.8500Y23.0500D01*
X125.8500Y23.0500D02*
X125.8500Y20.5500D01*
X121.5000Y23.0500D02*
X121.5000Y13.5500D01*
X121.5000Y13.5500D02*
X126.0800Y13.5500D01*
X65.0000Y23.0500D02*
X65.0000Y13.5500D01*
X65.0000Y13.5500D02*
X67.5400Y13.5500D01*
X62.5000Y27.0500D02*
X62.5000Y13.5500D01*
X62.5000Y13.5500D02*
X72.6200Y13.5500D01*
X25.8500Y13.0000D02*
X91.5000Y13.0000D01*
X91.5000Y13.0000D02*
X91.5000Y23.0500D01*
X25.8500Y13.0000D02*
X86.0500Y13.0000D01*
X86.0500Y13.0000D02*
X86.0500Y30.5500D01*
X25.8500Y13.0000D02*
X119.5000Y13.0000D01*
X119.5000Y13.0000D02*
X119.5000Y23.0500D01*
X25.8500Y13.0000D02*
X114.0500Y13.0000D01*
X114.0500Y13.0000D02*
X114.0500Y30.5500D01*
X25.8500Y13.0000D02*
X63.5000Y13.0000D01*
X63.5000Y13.0000D02*
X63.5000Y23.0500D01*
X25.8500Y13.0000D02*
X58.0500Y13.0000D01*
X58.0500Y13.0000D02*
X58.0500Y30.5500D01*
X34.6200Y46.2700D02*
X92.0000Y46.2700D01*
X92.0000Y46.2700D02*
X92.0000Y28.0500D01*
X42.2400Y46.2700D02*
X123.5000Y46.2700D01*
X123.5000Y46.2700D02*
X123.5000Y26.0500D01*
X39.7000Y46.2700D02*
X120.0000Y46.2700D01*
X120.0000Y46.2700D02*
X120.0000Y28.0500D01*
X47.3200Y46.2700D02*
X47.3200Y28.0500D01*
X47.3200Y28.0500D02*
X64.0000Y28.0500D01*
X93.0000Y25.5500D02*
X121.0000Y25.5500D01*
X93.0000Y25.5500D02*
X65.0000Y25.5500D01*
M02*