M48
METRIC,TZ
T1C0.400
%
G90
G05
T1
X25.850Y13.000
X28.000Y13.000
X29.750Y13.000
X29.750Y32.500
X34.620Y46.270
X37.160Y46.270
X39.700Y46.270
X42.240Y46.270
X47.320Y28.050
X47.320Y46.270
X49.860Y26.050
X49.860Y46.270
X52.400Y46.270
X54.940Y46.270
X56.000Y18.750
X56.000Y24.500
X56.250Y24.500
X56.250Y32.500
X56.750Y25.000
X56.750Y32.000
X57.750Y22.250
X57.850Y23.050
X58.050Y13.000
X59.500Y13.000
X59.500Y18.750
X59.750Y30.500
X59.750Y31.000
X60.000Y18.750
X60.000Y20.500
X60.020Y26.550
X60.020Y46.270
X60.500Y30.500
X60.500Y31.000
X61.000Y21.500
X61.000Y22.250
X61.000Y25.750
X61.000Y30.500
X62.500Y13.550
X62.500Y25.000
X62.500Y25.500
X62.500Y25.750
X62.500Y26.000
X62.500Y26.250
X62.500Y27.050
X63.000Y24.500
X63.000Y26.250
X63.500Y13.000
X64.000Y21.500
X64.000Y23.000
X64.500Y13.550
X64.500Y23.000
X64.500Y23.050
X65.000Y13.550
X65.000Y23.050
X65.100Y24.050
X65.100Y43.730
X65.500Y13.550
X65.500Y20.500
X65.500Y23.000
X65.500Y23.050
X65.500Y32.500
X65.500Y43.500
X69.850Y23.050
X70.000Y43.500
X70.500Y22.250
X70.500Y29.000
X70.500Y31.000
X72.000Y18.750
X73.000Y30.500
X73.000Y32.000
X73.500Y29.000
X73.500Y32.500
X73.750Y18.750
X73.750Y22.250
X84.000Y18.750
X84.000Y24.500
X84.250Y24.500
X84.250Y32.500
X84.750Y25.000
X84.750Y32.000
X85.750Y22.250
X85.850Y23.050
X86.050Y13.000
X87.750Y30.500
X87.750Y31.000
X88.000Y18.750
X88.000Y20.500
X88.500Y30.500
X88.500Y31.000
X89.000Y21.500
X89.000Y22.250
X89.000Y25.750
X89.000Y30.500
X90.500Y13.550
X90.500Y25.000
X90.500Y25.500
X90.500Y25.750
X90.500Y26.000
X90.500Y26.250
X90.500Y27.050
X90.500Y46.270
X91.000Y24.500
X91.000Y26.250
X91.500Y13.000
X92.000Y21.500
X92.000Y23.000
X92.000Y46.270
X92.500Y13.550
X92.500Y23.000
X92.500Y23.050
X93.000Y13.550
X93.000Y23.050
X93.000Y25.550
X93.500Y13.550
X93.500Y20.500
X93.500Y23.000
X93.500Y23.050
X95.500Y43.730
X95.500Y46.270
X97.850Y23.050
X98.500Y22.250
X98.500Y29.000
X98.500Y31.000
X100.000Y18.750
X100.000Y20.500
X101.000Y30.500
X101.000Y32.000
X101.500Y29.000
X101.500Y32.500
X101.750Y18.750
X101.750Y22.250
X112.000Y18.750
X112.000Y24.500
X112.250Y24.500
X112.250Y32.500
X112.750Y25.000
X112.750Y32.000
X113.750Y22.250
X113.850Y23.050
X114.050Y13.000
X115.750Y30.500
X115.750Y31.000
X116.000Y18.750
X116.000Y20.500
X116.500Y30.500
X116.500Y31.000
X117.000Y21.500
X117.000Y22.250
X117.000Y25.750
X117.000Y30.500
X118.500Y13.550
X118.500Y25.000
X118.500Y25.500
X118.500Y25.750
X118.500Y26.000
X118.500Y26.250
X118.500Y27.050
X118.500Y46.270
X119.000Y24.500
X119.000Y26.250
X119.500Y13.000
X120.000Y21.500
X120.000Y23.000
X120.000Y46.270
X120.500Y13.550
X120.500Y23.000
X120.500Y23.050
X121.000Y13.550
X121.000Y23.050
X121.500Y13.550
X121.500Y20.500
X121.500Y23.000
X121.500Y23.050
X123.500Y43.730
X123.500Y46.270
X125.850Y23.050
X126.500Y22.250
X126.500Y29.000
X126.500Y31.000
X128.000Y18.750
X128.000Y20.500
X129.000Y30.500
X129.000Y32.000
X129.500Y29.000
X129.500Y32.500
X129.750Y18.750
X129.750Y22.250
T0
M30