G04 ocdcircuit*
%FSLAX46Y46*%
%MOMM*%
%ADD10C,0.400*%
D10*
X98.0500Y30.5500D03*
X99.9500Y30.5500D03*
X86.0500Y30.5500D03*
X87.9500Y30.5500D03*
X126.0500Y30.5500D03*
X127.9500Y30.5500D03*
X114.0500Y30.5500D03*
X115.9500Y30.5500D03*
X70.0500Y30.5500D03*
X71.9500Y30.5500D03*
X58.0500Y30.5500D03*
X59.9500Y30.5500D03*
X25.8500Y13.0000D03*
X28.1500Y13.0000D03*
X93.0000Y13.5500D03*
X95.5400Y13.5500D03*
X98.0800Y13.5500D03*
X100.6200Y13.5500D03*
X121.0000Y13.5500D03*
X123.5400Y13.5500D03*
X126.0800Y13.5500D03*
X128.6200Y13.5500D03*
X65.0000Y13.5500D03*
X67.5400Y13.5500D03*
X70.0800Y13.5500D03*
X72.6200Y13.5500D03*
X27.0000Y46.2700D03*
X27.0000Y43.7300D03*
X29.5400Y46.2700D03*
X29.5400Y43.7300D03*
X32.0800Y46.2700D03*
X32.0800Y43.7300D03*
X34.6200Y46.2700D03*
X34.6200Y43.7300D03*
X37.1600Y46.2700D03*
X37.1600Y43.7300D03*
X39.7000Y46.2700D03*
X39.7000Y43.7300D03*
X42.2400Y46.2700D03*
X42.2400Y43.7300D03*
X44.7800Y46.2700D03*
X44.7800Y43.7300D03*
X47.3200Y46.2700D03*
X47.3200Y43.7300D03*
X49.8600Y46.2700D03*
X49.8600Y43.7300D03*
X52.4000Y46.2700D03*
X52.4000Y43.7300D03*
X54.9400Y46.2700D03*
X54.9400Y43.7300D03*
X57.4800Y46.2700D03*
X57.4800Y43.7300D03*
X60.0200Y46.2700D03*
X60.0200Y43.7300D03*
X62.5600Y46.2700D03*
X62.5600Y43.7300D03*
X65.1000Y46.2700D03*
X65.1000Y43.7300D03*
X67.6400Y46.2700D03*
X67.6400Y43.7300D03*
X70.1800Y46.2700D03*
X70.1800Y43.7300D03*
X72.7200Y46.2700D03*
X72.7200Y43.7300D03*
X75.2600Y46.2700D03*
X75.2600Y43.7300D03*
X85.8500Y20.5500D03*
X88.1500Y20.5500D03*
X97.8500Y20.5500D03*
X100.1500Y20.5500D03*
X113.8500Y20.5500D03*
X116.1500Y20.5500D03*
X125.8500Y20.5500D03*
X128.1500Y20.5500D03*
X57.8500Y20.5500D03*
X60.1500Y20.5500D03*
X69.8500Y20.5500D03*
X72.1500Y20.5500D03*
X90.5000Y27.0500D03*
X94.5000Y28.0500D03*
X95.5000Y24.0500D03*
X91.5000Y23.0500D03*
X90.5000Y26.5500D03*
X94.0000Y28.0500D03*
X95.5000Y24.5500D03*
X92.0000Y23.0500D03*
X90.5000Y26.0500D03*
X93.5000Y28.0500D03*
X95.5000Y25.0500D03*
X92.5000Y23.0500D03*
X90.5000Y25.5500D03*
X93.0000Y28.0500D03*
X95.5000Y25.5500D03*
X93.0000Y23.0500D03*
X90.5000Y25.0500D03*
X92.5000Y28.0500D03*
X95.5000Y26.0500D03*
X93.5000Y23.0500D03*
X90.5000Y24.5500D03*
X92.0000Y28.0500D03*
X95.5000Y26.5500D03*
X94.0000Y23.0500D03*
X90.5000Y24.0500D03*
X91.5000Y28.0500D03*
X95.5000Y27.0500D03*
X94.5000Y23.0500D03*
X93.0000Y25.5500D03*
X118.5000Y27.0500D03*
X122.5000Y28.0500D03*
X123.5000Y24.0500D03*
X119.5000Y23.0500D03*
X118.5000Y26.5500D03*
X122.0000Y28.0500D03*
X123.5000Y24.5500D03*
X120.0000Y23.0500D03*
X118.5000Y26.0500D03*
X121.5000Y28.0500D03*
X123.5000Y25.0500D03*
X120.5000Y23.0500D03*
X118.5000Y25.5500D03*
X121.0000Y28.0500D03*
X123.5000Y25.5500D03*
X121.0000Y23.0500D03*
X118.5000Y25.0500D03*
X120.5000Y28.0500D03*
X123.5000Y26.0500D03*
X121.5000Y23.0500D03*
X118.5000Y24.5500D03*
X120.0000Y28.0500D03*
X123.5000Y26.5500D03*
X122.0000Y23.0500D03*
X118.5000Y24.0500D03*
X119.5000Y28.0500D03*
X123.5000Y27.0500D03*
X122.5000Y23.0500D03*
X121.0000Y25.5500D03*
X62.5000Y27.0500D03*
X66.5000Y28.0500D03*
X67.5000Y24.0500D03*
X63.5000Y23.0500D03*
X62.5000Y26.5500D03*
X66.0000Y28.0500D03*
X67.5000Y24.5500D03*
X64.0000Y23.0500D03*
X62.5000Y26.0500D03*
X65.5000Y28.0500D03*
X67.5000Y25.0500D03*
X64.5000Y23.0500D03*
X62.5000Y25.5500D03*
X65.0000Y28.0500D03*
X67.5000Y25.5500D03*
X65.0000Y23.0500D03*
X62.5000Y25.0500D03*
X64.5000Y28.0500D03*
X67.5000Y26.0500D03*
X65.5000Y23.0500D03*
X62.5000Y24.5500D03*
X64.0000Y28.0500D03*
X67.5000Y26.5500D03*
X66.0000Y23.0500D03*
X62.5000Y24.0500D03*
X63.5000Y28.0500D03*
X67.5000Y27.0500D03*
X66.5000Y23.0500D03*
X65.0000Y25.5500D03*
X90.5000Y25.5000D02*
X90.5000Y25.7500D01*
X90.5000Y25.7500D02*
X89.0000Y25.7500D01*
X89.0000Y25.7500D02*
X89.0000Y30.5000D01*
X89.0000Y30.5000D02*
X98.0000Y30.5000D01*
X118.5000Y25.5000D02*
X118.5000Y25.7500D01*
X118.5000Y25.7500D02*
X117.0000Y25.7500D01*
X117.0000Y25.7500D02*
X117.0000Y30.5000D01*
X117.0000Y30.5000D02*
X126.0000Y30.5000D01*
X62.5000Y25.5000D02*
X62.5000Y25.7500D01*
X62.5000Y25.7500D02*
X61.0000Y25.7500D01*
X61.0000Y25.7500D02*
X61.0000Y30.5000D01*
X61.0000Y30.5000D02*
X70.0000Y30.5000D01*
X70.0000Y43.5000D02*
X65.5000Y43.5000D01*
X65.5000Y43.5000D02*
X65.5000Y32.5000D01*
X65.5000Y32.5000D02*
X29.7500Y32.5000D01*
X29.7500Y32.5000D02*
X29.7500Y13.0000D01*
X29.7500Y13.0000D02*
X28.0000Y13.0000D01*
X28.0000Y13.0000D02*
X59.5000Y13.0000D01*
X59.5000Y13.0000D02*
X59.5000Y18.7500D01*
X59.5000Y18.7500D02*
X84.0000Y18.7500D01*
X84.0000Y18.7500D02*
X84.0000Y24.5000D01*
X84.0000Y24.5000D02*
X91.0000Y24.5000D01*
X91.0000Y24.5000D02*
X91.0000Y26.2500D01*
X91.0000Y26.2500D02*
X90.5000Y26.2500D01*
X90.5000Y26.2500D02*
X90.5000Y26.0000D01*
X90.5000Y26.0000D02*
X90.5000Y26.2500D01*
X90.5000Y26.2500D02*
X91.0000Y26.2500D01*
X91.0000Y26.2500D02*
X91.0000Y24.5000D01*
X91.0000Y24.5000D02*
X84.2500Y24.5000D01*
X84.2500Y24.5000D02*
X84.2500Y32.5000D01*
X84.2500Y32.5000D02*
X101.5000Y32.5000D01*
X101.5000Y32.5000D02*
X101.5000Y29.0000D01*
X101.5000Y29.0000D02*
X98.5000Y29.0000D01*
X98.5000Y29.0000D02*
X98.5000Y31.0000D01*
X98.5000Y31.0000D02*
X87.7500Y31.0000D01*
X87.7500Y31.0000D02*
X87.7500Y30.5000D01*
X87.7500Y30.5000D02*
X88.5000Y30.5000D01*
X88.5000Y30.5000D02*
X88.5000Y31.0000D01*
X88.5000Y31.0000D02*
X98.5000Y31.0000D01*
X98.5000Y31.0000D02*
X98.5000Y22.2500D01*
X98.5000Y22.2500D02*
X101.7500Y22.2500D01*
X101.7500Y22.2500D02*
X101.7500Y18.7500D01*
X101.7500Y18.7500D02*
X88.0000Y18.7500D01*
X88.0000Y18.7500D02*
X88.0000Y20.5000D01*
X88.0000Y20.5000D02*
X88.0000Y18.7500D01*
X88.0000Y18.7500D02*
X100.0000Y18.7500D01*
X100.0000Y18.7500D02*
X100.0000Y20.5000D01*
X100.0000Y20.5000D02*
X100.0000Y18.7500D01*
X100.0000Y18.7500D02*
X112.0000Y18.7500D01*
X112.0000Y18.7500D02*
X112.0000Y24.5000D01*
X112.0000Y24.5000D02*
X119.0000Y24.5000D01*
X119.0000Y24.5000D02*
X119.0000Y26.2500D01*
X119.0000Y26.2500D02*
X118.5000Y26.2500D01*
X118.5000Y26.2500D02*
X118.5000Y26.0000D01*
X118.5000Y26.0000D02*
X118.5000Y26.2500D01*
X118.5000Y26.2500D02*
X119.0000Y26.2500D01*
X119.0000Y26.2500D02*
X119.0000Y24.5000D01*
X119.0000Y24.5000D02*
X112.2500Y24.5000D01*
X112.2500Y24.5000D02*
X112.2500Y32.5000D01*
X112.2500Y32.5000D02*
X129.5000Y32.5000D01*
X129.5000Y32.5000D02*
X129.5000Y29.0000D01*
X129.5000Y29.0000D02*
X126.5000Y29.0000D01*
X126.5000Y29.0000D02*
X126.5000Y31.0000D01*
X126.5000Y31.0000D02*
X115.7500Y31.0000D01*
X115.7500Y31.0000D02*
X115.7500Y30.5000D01*
X115.7500Y30.5000D02*
X116.5000Y30.5000D01*
X116.5000Y30.5000D02*
X116.5000Y31.0000D01*
X116.5000Y31.0000D02*
X126.5000Y31.0000D01*
X126.5000Y31.0000D02*
X126.5000Y22.2500D01*
X126.5000Y22.2500D02*
X129.7500Y22.2500D01*
X129.7500Y22.2500D02*
X129.7500Y18.7500D01*
X129.7500Y18.7500D02*
X116.0000Y18.7500D01*
X116.0000Y18.7500D02*
X116.0000Y20.5000D01*
X116.0000Y20.5000D02*
X116.0000Y18.7500D01*
X116.0000Y18.7500D02*
X128.0000Y18.7500D01*
X128.0000Y18.7500D02*
X128.0000Y20.5000D01*
X128.0000Y20.5000D02*
X128.0000Y18.7500D01*
X128.0000Y18.7500D02*
X56.0000Y18.7500D01*
X56.0000Y18.7500D02*
X56.0000Y24.5000D01*
X56.0000Y24.5000D02*
X63.0000Y24.5000D01*
X63.0000Y24.5000D02*
X63.0000Y26.2500D01*
X63.0000Y26.2500D02*
X62.5000Y26.2500D01*
X62.5000Y26.2500D02*
X62.5000Y26.0000D01*
X62.5000Y26.0000D02*
X62.5000Y26.2500D01*
X62.5000Y26.2500D02*
X63.0000Y26.2500D01*
X63.0000Y26.2500D02*
X63.0000Y24.5000D01*
X63.0000Y24.5000D02*
X56.2500Y24.5000D01*
X56.2500Y24.5000D02*
X56.2500Y32.5000D01*
X56.2500Y32.5000D02*
X73.5000Y32.5000D01*
X73.5000Y32.5000D02*
X73.5000Y29.0000D01*
X73.5000Y29.0000D02*
X70.5000Y29.0000D01*
X70.5000Y29.0000D02*
X70.5000Y31.0000D01*
X70.5000Y31.0000D02*
X59.7500Y31.0000D01*
X59.7500Y31.0000D02*
X59.7500Y30.5000D01*
X59.7500Y30.5000D02*
X60.5000Y30.5000D01*
X60.5000Y30.5000D02*
X60.5000Y31.0000D01*
X60.5000Y31.0000D02*
X70.5000Y31.0000D01*
X70.5000Y31.0000D02*
X70.5000Y22.2500D01*
X70.5000Y22.2500D02*
X73.7500Y22.2500D01*
X73.7500Y22.2500D02*
X73.7500Y18.7500D01*
X73.7500Y18.7500D02*
X60.0000Y18.7500D01*
X60.0000Y18.7500D02*
X60.0000Y20.5000D01*
X60.0000Y20.5000D02*
X60.0000Y18.7500D01*
X60.0000Y18.7500D02*
X72.0000Y18.7500D01*
X72.0000Y18.7500D02*
X72.0000Y20.5000D01*
X92.5000Y23.0000D02*
X92.0000Y23.0000D01*
X92.0000Y23.0000D02*
X92.0000Y21.5000D01*
X92.0000Y21.5000D02*
X89.0000Y21.5000D01*
X89.0000Y21.5000D02*
X89.0000Y22.2500D01*
X89.0000Y22.2500D02*
X85.7500Y22.2500D01*
X85.7500Y22.2500D02*
X85.7500Y20.5000D01*
X92.5000Y23.0500D02*
X85.8500Y23.0500D01*
X85.8500Y23.0500D02*
X85.8500Y20.5500D01*
X92.5000Y23.0500D02*
X92.5000Y13.5500D01*
X92.5000Y13.5500D02*
X93.0000Y13.5500D01*
X93.5000Y23.0000D02*
X93.5000Y20.5000D01*
X93.5000Y20.5000D02*
X97.7500Y20.5000D01*
X93.5000Y23.0500D02*
X97.8500Y23.0500D01*
X97.8500Y23.0500D02*
X97.8500Y20.5500D01*
X93.5000Y23.0500D02*
X93.5000Y13.5500D01*
X93.5000Y13.5500D02*
X98.0800Y13.5500D01*
X120.5000Y23.0000D02*
X120.0000Y23.0000D01*
X120.0000Y23.0000D02*
X120.0000Y21.5000D01*
X120.0000Y21.5000D02*
X117.0000Y21.5000D01*
X117.0000Y21.5000D02*
X117.0000Y22.2500D01*
X117.0000Y22.2500D02*
X113.7500Y22.2500D01*
X113.7500Y22.2500D02*
X113.7500Y20.5000D01*
X120.5000Y23.0500D02*
X113.8500Y23.0500D01*
X113.8500Y23.0500D02*
X113.8500Y20.5500D01*
X120.5000Y23.0500D02*
X120.5000Y13.5500D01*
X120.5000Y13.5500D02*
X121.0000Y13.5500D01*
X118.5000Y27.0500D02*
X118.5000Y13.5500D01*
X118.5000Y13.5500D02*
X128.6200Y13.5500D01*
X64.5000Y23.0000D02*
X64.0000Y23.0000D01*
X64.0000Y23.0000D02*
X64.0000Y21.5000D01*
X64.0000Y21.5000D02*
X61.0000Y21.5000D01*
X61.0000Y21.5000D02*
X61.0000Y22.2500D01*
X61.0000Y22.2500D02*
X57.7500Y22.2500D01*
X57.7500Y22.2500D02*
X57.7500Y20.5000D01*
X64.5000Y23.0500D02*
X57.8500Y23.0500D01*
X57.8500Y23.0500D02*
X57.8500Y20.5500D01*
X64.5000Y23.0500D02*
X64.5000Y13.5500D01*
X64.5000Y13.5500D02*
X65.0000Y13.5500D01*
X65.5000Y23.0000D02*
X65.5000Y20.5000D01*
X65.5000Y20.5000D02*
X69.7500Y20.5000D01*
X65.5000Y23.0500D02*
X69.8500Y23.0500D01*
X69.8500Y23.0500D02*
X69.8500Y20.5500D01*
X65.5000Y23.0500D02*
X65.5000Y13.5500D01*
X65.5000Y13.5500D02*
X70.0800Y13.5500D01*
X65.1000Y43.7300D02*
X95.5000Y43.7300D01*
X95.5000Y43.7300D02*
X95.5000Y24.0500D01*
X65.1000Y43.7300D02*
X123.5000Y43.7300D01*
X123.5000Y43.7300D02*
X123.5000Y24.0500D01*
X65.1000Y43.7300D02*
X65.1000Y24.0500D01*
X65.1000Y24.0500D02*
X67.5000Y24.0500D01*
X37.1600Y46.2700D02*
X95.5000Y46.2700D01*
X95.5000Y46.2700D02*
X95.5000Y26.0500D01*
X52.4000Y46.2700D02*
X90.5000Y46.2700D01*
X90.5000Y46.2700D02*
X90.5000Y26.5500D01*
X54.9400Y46.2700D02*
X118.5000Y46.2700D01*
X118.5000Y46.2700D02*
X118.5000Y26.5500D01*
X49.8600Y46.2700D02*
X49.8600Y26.0500D01*
X49.8600Y26.0500D02*
X67.5000Y26.0500D01*
X60.0200Y46.2700D02*
X60.0200Y26.5500D01*
X60.0200Y26.5500D02*
X62.5000Y26.5500D01*
M02*