<svg xmlns="http://www.w3.org/2000/svg" width="1300.0" height="900.0" viewBox="0 0 1300.0 900.0">
<rect x="0" y="0" width="1300.0" height="900.0" fill="#0b3d0b" stroke="#1e5a1e"/>
<line x1="905.0" y1="645.0" x2="905.0" y2="642.5" stroke="#e74c3c" stroke-width="3.0"/>
<line x1="905.0" y1="642.5" x2="890.0" y2="642.5" stroke="#e74c3c" stroke-width="3.0"/>
<line x1="890.0" y1="642.5" x2="890.0" y2="595.0" stroke="#e74c3c" stroke-width="3.0"/>
<line x1="890.0" y1="595.0" x2="980.0" y2="595.0" stroke="#e74c3c" stroke-width="3.0"/>
<line x1="905.0" y1="650.0" x2="847.5" y2="650.0" stroke="#3498db" stroke-width="3.0"/>
<line x1="847.5" y1="650.0" x2="847.5" y2="580.0" stroke="#3498db" stroke-width="3.0"/>
<line x1="847.5" y1="580.0" x2="1010.0" y2="580.0" stroke="#3498db" stroke-width="3.0"/>
<line x1="1010.0" y1="580.0" x2="1010.0" y2="595.0" stroke="#3498db" stroke-width="3.0"/>
<line x1="1010.0" y1="595.0" x2="997.5" y2="595.0" stroke="#3498db" stroke-width="3.0"/>
<line x1="1185.0" y1="645.0" x2="1185.0" y2="642.5" stroke="#e74c3c" stroke-width="3.0"/>
<line x1="1185.0" y1="642.5" x2="1170.0" y2="642.5" stroke="#e74c3c" stroke-width="3.0"/>
<line x1="1170.0" y1="642.5" x2="1170.0" y2="595.0" stroke="#e74c3c" stroke-width="3.0"/>
<line x1="1170.0" y1="595.0" x2="1260.0" y2="595.0" stroke="#e74c3c" stroke-width="3.0"/>
<line x1="1185.0" y1="650.0" x2="1127.5" y2="650.0" stroke="#3498db" stroke-width="3.0"/>
<line x1="1127.5" y1="650.0" x2="1127.5" y2="580.0" stroke="#3498db" stroke-width="3.0"/>
<line x1="1127.5" y1="580.0" x2="1290.0" y2="580.0" stroke="#3498db" stroke-width="3.0"/>
<line x1="1290.0" y1="580.0" x2="1290.0" y2="595.0" stroke="#3498db" stroke-width="3.0"/>
<line x1="1290.0" y1="595.0" x2="1277.5" y2="595.0" stroke="#3498db" stroke-width="3.0"/>
<line x1="625.0" y1="645.0" x2="625.0" y2="642.5" stroke="#e74c3c" stroke-width="3.0"/>
<line x1="625.0" y1="642.5" x2="610.0" y2="642.5" stroke="#e74c3c" stroke-width="3.0"/>
<line x1="610.0" y1="642.5" x2="610.0" y2="595.0" stroke="#e74c3c" stroke-width="3.0"/>
<line x1="610.0" y1="595.0" x2="700.0" y2="595.0" stroke="#e74c3c" stroke-width="3.0"/>
<line x1="625.0" y1="650.0" x2="567.5" y2="650.0" stroke="#3498db" stroke-width="3.0"/>
<line x1="567.5" y1="650.0" x2="567.5" y2="580.0" stroke="#3498db" stroke-width="3.0"/>
<line x1="567.5" y1="580.0" x2="730.0" y2="580.0" stroke="#3498db" stroke-width="3.0"/>
<line x1="730.0" y1="580.0" x2="730.0" y2="595.0" stroke="#3498db" stroke-width="3.0"/>
<line x1="730.0" y1="595.0" x2="717.5" y2="595.0" stroke="#3498db" stroke-width="3.0"/>
<line x1="700.0" y1="465.0" x2="655.0" y2="465.0" stroke="#e74c3c" stroke-width="5.0"/>
<line x1="655.0" y1="465.0" x2="655.0" y2="575.0" stroke="#e74c3c" stroke-width="5.0"/>
<line x1="655.0" y1="575.0" x2="297.5" y2="575.0" stroke="#e74c3c" stroke-width="5.0"/>
<line x1="297.5" y1="575.0" x2="297.5" y2="770.0" stroke="#e74c3c" stroke-width="5.0"/>
<line x1="297.5" y1="770.0" x2="280.0" y2="770.0" stroke="#e74c3c" stroke-width="5.0"/>
<line x1="280.0" y1="770.0" x2="595.0" y2="770.0" stroke="#e74c3c" stroke-width="5.0"/>
<line x1="595.0" y1="770.0" x2="595.0" y2="712.5" stroke="#e74c3c" stroke-width="5.0"/>
<line x1="595.0" y1="712.5" x2="840.0" y2="712.5" stroke="#e74c3c" stroke-width="5.0"/>
<line x1="840.0" y1="712.5" x2="840.0" y2="655.0" stroke="#e74c3c" stroke-width="5.0"/>
<line x1="840.0" y1="655.0" x2="910.0" y2="655.0" stroke="#e74c3c" stroke-width="5.0"/>
<line x1="910.0" y1="655.0" x2="910.0" y2="637.5" stroke="#e74c3c" stroke-width="5.0"/>
<line x1="910.0" y1="637.5" x2="905.0" y2="637.5" stroke="#e74c3c" stroke-width="5.0"/>
<line x1="905.0" y1="637.5" x2="905.0" y2="640.0" stroke="#e74c3c" stroke-width="5.0"/>
<line x1="905.0" y1="640.0" x2="905.0" y2="637.5" stroke="#e74c3c" stroke-width="5.0"/>
<line x1="905.0" y1="637.5" x2="910.0" y2="637.5" stroke="#e74c3c" stroke-width="5.0"/>
<line x1="910.0" y1="637.5" x2="910.0" y2="655.0" stroke="#e74c3c" stroke-width="5.0"/>
<line x1="910.0" y1="655.0" x2="842.5" y2="655.0" stroke="#e74c3c" stroke-width="5.0"/>
<line x1="842.5" y1="655.0" x2="842.5" y2="575.0" stroke="#e74c3c" stroke-width="5.0"/>
<line x1="842.5" y1="575.0" x2="1015.0" y2="575.0" stroke="#e74c3c" stroke-width="5.0"/>
<line x1="1015.0" y1="575.0" x2="1015.0" y2="610.0" stroke="#e74c3c" stroke-width="5.0"/>
<line x1="1015.0" y1="610.0" x2="985.0" y2="610.0" stroke="#e74c3c" stroke-width="5.0"/>
<line x1="985.0" y1="610.0" x2="985.0" y2="590.0" stroke="#e74c3c" stroke-width="5.0"/>
<line x1="985.0" y1="590.0" x2="877.5" y2="590.0" stroke="#e74c3c" stroke-width="5.0"/>
<line x1="877.5" y1="590.0" x2="877.5" y2="595.0" stroke="#e74c3c" stroke-width="5.0"/>
<line x1="877.5" y1="595.0" x2="885.0" y2="595.0" stroke="#e74c3c" stroke-width="5.0"/>
<line x1="885.0" y1="595.0" x2="885.0" y2="590.0" stroke="#e74c3c" stroke-width="5.0"/>
<line x1="885.0" y1="590.0" x2="985.0" y2="590.0" stroke="#e74c3c" stroke-width="5.0"/>
<line x1="985.0" y1="590.0" x2="985.0" y2="677.5" stroke="#e74c3c" stroke-width="5.0"/>
<line x1="985.0" y1="677.5" x2="1017.5" y2="677.5" stroke="#e74c3c" stroke-width="5.0"/>
<line x1="1017.5" y1="677.5" x2="1017.5" y2="712.5" stroke="#e74c3c" stroke-width="5.0"/>
<line x1="1017.5" y1="712.5" x2="880.0" y2="712.5" stroke="#e74c3c" stroke-width="5.0"/>
<line x1="880.0" y1="712.5" x2="880.0" y2="695.0" stroke="#e74c3c" stroke-width="5.0"/>
<line x1="880.0" y1="695.0" x2="880.0" y2="712.5" stroke="#e74c3c" stroke-width="5.0"/>
<line x1="880.0" y1="712.5" x2="1000.0" y2="712.5" stroke="#e74c3c" stroke-width="5.0"/>
<line x1="1000.0" y1="712.5" x2="1000.0" y2="695.0" stroke="#e74c3c" stroke-width="5.0"/>
<line x1="1000.0" y1="695.0" x2="1000.0" y2="712.5" stroke="#e74c3c" stroke-width="5.0"/>
<line x1="1000.0" y1="712.5" x2="1120.0" y2="712.5" stroke="#e74c3c" stroke-width="5.0"/>
<line x1="1120.0" y1="712.5" x2="1120.0" y2="655.0" stroke="#e74c3c" stroke-width="5.0"/>
<line x1="1120.0" y1="655.0" x2="1190.0" y2="655.0" stroke="#e74c3c" stroke-width="5.0"/>
<line x1="1190.0" y1="655.0" x2="1190.0" y2="637.5" stroke="#e74c3c" stroke-width="5.0"/>
<line x1="1190.0" y1="637.5" x2="1185.0" y2="637.5" stroke="#e74c3c" stroke-width="5.0"/>
<line x1="1185.0" y1="637.5" x2="1185.0" y2="640.0" stroke="#e74c3c" stroke-width="5.0"/>
<line x1="1185.0" y1="640.0" x2="1185.0" y2="637.5" stroke="#e74c3c" stroke-width="5.0"/>
<line x1="1185.0" y1="637.5" x2="1190.0" y2="637.5" stroke="#e74c3c" stroke-width="5.0"/>
<line x1="1190.0" y1="637.5" x2="1190.0" y2="655.0" stroke="#e74c3c" stroke-width="5.0"/>
<line x1="1190.0" y1="655.0" x2="1122.5" y2="655.0" stroke="#e74c3c" stroke-width="5.0"/>
<line x1="1122.5" y1="655.0" x2="1122.5" y2="575.0" stroke="#e74c3c" stroke-width="5.0"/>
<line x1="1122.5" y1="575.0" x2="1295.0" y2="575.0" stroke="#e74c3c" stroke-width="5.0"/>
<line x1="1295.0" y1="575.0" x2="1295.0" y2="610.0" stroke="#e74c3c" stroke-width="5.0"/>
<line x1="1295.0" y1="610.0" x2="1265.0" y2="610.0" stroke="#e74c3c" stroke-width="5.0"/>
<line x1="1265.0" y1="610.0" x2="1265.0" y2="590.0" stroke="#e74c3c" stroke-width="5.0"/>
<line x1="1265.0" y1="590.0" x2="1157.5" y2="590.0" stroke="#e74c3c" stroke-width="5.0"/>
<line x1="1157.5" y1="590.0" x2="1157.5" y2="595.0" stroke="#e74c3c" stroke-width="5.0"/>
<line x1="1157.5" y1="595.0" x2="1165.0" y2="595.0" stroke="#e74c3c" stroke-width="5.0"/>
<line x1="1165.0" y1="595.0" x2="1165.0" y2="590.0" stroke="#e74c3c" stroke-width="5.0"/>
<line x1="1165.0" y1="590.0" x2="1265.0" y2="590.0" stroke="#e74c3c" stroke-width="5.0"/>
<line x1="1265.0" y1="590.0" x2="1265.0" y2="677.5" stroke="#e74c3c" stroke-width="5.0"/>
<line x1="1265.0" y1="677.5" x2="1297.5" y2="677.5" stroke="#e74c3c" stroke-width="5.0"/>
<line x1="1297.5" y1="677.5" x2="1297.5" y2="712.5" stroke="#e74c3c" stroke-width="5.0"/>
<line x1="1297.5" y1="712.5" x2="1160.0" y2="712.5" stroke="#e74c3c" stroke-width="5.0"/>
<line x1="1160.0" y1="712.5" x2="1160.0" y2="695.0" stroke="#e74c3c" stroke-width="5.0"/>
<line x1="1160.0" y1="695.0" x2="1160.0" y2="712.5" stroke="#e74c3c" stroke-width="5.0"/>
<line x1="1160.0" y1="712.5" x2="1280.0" y2="712.5" stroke="#e74c3c" stroke-width="5.0"/>
<line x1="1280.0" y1="712.5" x2="1280.0" y2="695.0" stroke="#e74c3c" stroke-width="5.0"/>
<line x1="1280.0" y1="695.0" x2="1280.0" y2="712.5" stroke="#e74c3c" stroke-width="5.0"/>
<line x1="1280.0" y1="712.5" x2="560.0" y2="712.5" stroke="#e74c3c" stroke-width="5.0"/>
<line x1="560.0" y1="712.5" x2="560.0" y2="655.0" stroke="#e74c3c" stroke-width="5.0"/>
<line x1="560.0" y1="655.0" x2="630.0" y2="655.0" stroke="#e74c3c" stroke-width="5.0"/>
<line x1="630.0" y1="655.0" x2="630.0" y2="637.5" stroke="#e74c3c" stroke-width="5.0"/>
<line x1="630.0" y1="637.5" x2="625.0" y2="637.5" stroke="#e74c3c" stroke-width="5.0"/>
<line x1="625.0" y1="637.5" x2="625.0" y2="640.0" stroke="#e74c3c" stroke-width="5.0"/>
<line x1="625.0" y1="640.0" x2="625.0" y2="637.5" stroke="#e74c3c" stroke-width="5.0"/>
<line x1="625.0" y1="637.5" x2="630.0" y2="637.5" stroke="#e74c3c" stroke-width="5.0"/>
<line x1="630.0" y1="637.5" x2="630.0" y2="655.0" stroke="#e74c3c" stroke-width="5.0"/>
<line x1="630.0" y1="655.0" x2="562.5" y2="655.0" stroke="#e74c3c" stroke-width="5.0"/>
<line x1="562.5" y1="655.0" x2="562.5" y2="575.0" stroke="#e74c3c" stroke-width="5.0"/>
<line x1="562.5" y1="575.0" x2="735.0" y2="575.0" stroke="#e74c3c" stroke-width="5.0"/>
<line x1="735.0" y1="575.0" x2="735.0" y2="610.0" stroke="#e74c3c" stroke-width="5.0"/>
<line x1="735.0" y1="610.0" x2="705.0" y2="610.0" stroke="#e74c3c" stroke-width="5.0"/>
<line x1="705.0" y1="610.0" x2="705.0" y2="590.0" stroke="#e74c3c" stroke-width="5.0"/>
<line x1="705.0" y1="590.0" x2="597.5" y2="590.0" stroke="#e74c3c" stroke-width="5.0"/>
<line x1="597.5" y1="590.0" x2="597.5" y2="595.0" stroke="#e74c3c" stroke-width="5.0"/>
<line x1="597.5" y1="595.0" x2="605.0" y2="595.0" stroke="#e74c3c" stroke-width="5.0"/>
<line x1="605.0" y1="595.0" x2="605.0" y2="590.0" stroke="#e74c3c" stroke-width="5.0"/>
<line x1="605.0" y1="590.0" x2="705.0" y2="590.0" stroke="#e74c3c" stroke-width="5.0"/>
<line x1="705.0" y1="590.0" x2="705.0" y2="677.5" stroke="#e74c3c" stroke-width="5.0"/>
<line x1="705.0" y1="677.5" x2="737.5" y2="677.5" stroke="#e74c3c" stroke-width="5.0"/>
<line x1="737.5" y1="677.5" x2="737.5" y2="712.5" stroke="#e74c3c" stroke-width="5.0"/>
<line x1="737.5" y1="712.5" x2="600.0" y2="712.5" stroke="#e74c3c" stroke-width="5.0"/>
<line x1="600.0" y1="712.5" x2="600.0" y2="695.0" stroke="#e74c3c" stroke-width="5.0"/>
<line x1="600.0" y1="695.0" x2="600.0" y2="712.5" stroke="#e74c3c" stroke-width="5.0"/>
<line x1="600.0" y1="712.5" x2="720.0" y2="712.5" stroke="#e74c3c" stroke-width="5.0"/>
<line x1="720.0" y1="712.5" x2="720.0" y2="695.0" stroke="#e74c3c" stroke-width="5.0"/>
<line x1="925.0" y1="670.0" x2="920.0" y2="670.0" stroke="#e74c3c" stroke-width="3.0"/>
<line x1="920.0" y1="670.0" x2="920.0" y2="685.0" stroke="#e74c3c" stroke-width="3.0"/>
<line x1="920.0" y1="685.0" x2="890.0" y2="685.0" stroke="#e74c3c" stroke-width="3.0"/>
<line x1="890.0" y1="685.0" x2="890.0" y2="677.5" stroke="#e74c3c" stroke-width="3.0"/>
<line x1="890.0" y1="677.5" x2="857.5" y2="677.5" stroke="#e74c3c" stroke-width="3.0"/>
<line x1="857.5" y1="677.5" x2="857.5" y2="695.0" stroke="#e74c3c" stroke-width="3.0"/>
<line x1="925.0" y1="669.5" x2="858.5" y2="669.5" stroke="#e74c3c" stroke-width="3.0"/>
<line x1="858.5" y1="669.5" x2="858.5" y2="694.5" stroke="#e74c3c" stroke-width="3.0"/>
<line x1="925.0" y1="669.5" x2="925.0" y2="764.5" stroke="#e74c3c" stroke-width="3.0"/>
<line x1="925.0" y1="764.5" x2="930.0" y2="764.5" stroke="#e74c3c" stroke-width="3.0"/>
<line x1="930.0" y1="669.5" x2="930.0" y2="764.5" stroke="#3498db" stroke-width="3.0"/>
<line x1="930.0" y1="764.5" x2="955.4000000000001" y2="764.5" stroke="#3498db" stroke-width="3.0"/>
<line x1="935.0" y1="670.0" x2="935.0" y2="695.0" stroke="#e74c3c" stroke-width="3.0"/>
<line x1="935.0" y1="695.0" x2="977.5" y2="695.0" stroke="#e74c3c" stroke-width="3.0"/>
<line x1="935.0" y1="669.5" x2="978.5" y2="669.5" stroke="#e74c3c" stroke-width="3.0"/>
<line x1="978.5" y1="669.5" x2="978.5" y2="694.5" stroke="#e74c3c" stroke-width="3.0"/>
<line x1="935.0" y1="669.5" x2="935.0" y2="764.5" stroke="#e74c3c" stroke-width="3.0"/>
<line x1="935.0" y1="764.5" x2="980.8" y2="764.5" stroke="#e74c3c" stroke-width="3.0"/>
<line x1="905.0" y1="629.5" x2="905.0" y2="764.5" stroke="#3498db" stroke-width="3.0"/>
<line x1="905.0" y1="764.5" x2="1006.2" y2="764.5" stroke="#3498db" stroke-width="3.0"/>
<line x1="1205.0" y1="670.0" x2="1200.0" y2="670.0" stroke="#e74c3c" stroke-width="3.0"/>
<line x1="1200.0" y1="670.0" x2="1200.0" y2="685.0" stroke="#e74c3c" stroke-width="3.0"/>
<line x1="1200.0" y1="685.0" x2="1170.0" y2="685.0" stroke="#e74c3c" stroke-width="3.0"/>
<line x1="1170.0" y1="685.0" x2="1170.0" y2="677.5" stroke="#e74c3c" stroke-width="3.0"/>
<line x1="1170.0" y1="677.5" x2="1137.5" y2="677.5" stroke="#e74c3c" stroke-width="3.0"/>
<line x1="1137.5" y1="677.5" x2="1137.5" y2="695.0" stroke="#e74c3c" stroke-width="3.0"/>
<line x1="1205.0" y1="669.5" x2="1138.5" y2="669.5" stroke="#e74c3c" stroke-width="3.0"/>
<line x1="1138.5" y1="669.5" x2="1138.5" y2="694.5" stroke="#e74c3c" stroke-width="3.0"/>
<line x1="1205.0" y1="669.5" x2="1205.0" y2="764.5" stroke="#e74c3c" stroke-width="3.0"/>
<line x1="1205.0" y1="764.5" x2="1210.0" y2="764.5" stroke="#e74c3c" stroke-width="3.0"/>
<line x1="1210.0" y1="669.5" x2="1210.0" y2="764.5" stroke="#3498db" stroke-width="3.0"/>
<line x1="1210.0" y1="764.5" x2="1235.4" y2="764.5" stroke="#3498db" stroke-width="3.0"/>
<line x1="1215.0" y1="670.0" x2="1215.0" y2="695.0" stroke="#3498db" stroke-width="3.0"/>
<line x1="1215.0" y1="695.0" x2="1257.5" y2="695.0" stroke="#3498db" stroke-width="3.0"/>
<line x1="1215.0" y1="669.5" x2="1258.5" y2="669.5" stroke="#3498db" stroke-width="3.0"/>
<line x1="1258.5" y1="669.5" x2="1258.5" y2="694.5" stroke="#3498db" stroke-width="3.0"/>
<line x1="1215.0" y1="669.5" x2="1215.0" y2="764.5" stroke="#3498db" stroke-width="3.0"/>
<line x1="1215.0" y1="764.5" x2="1260.8" y2="764.5" stroke="#3498db" stroke-width="3.0"/>
<line x1="1185.0" y1="629.5" x2="1185.0" y2="764.5" stroke="#e74c3c" stroke-width="3.0"/>
<line x1="1185.0" y1="764.5" x2="1286.2" y2="764.5" stroke="#e74c3c" stroke-width="3.0"/>
<line x1="645.0" y1="670.0" x2="640.0" y2="670.0" stroke="#e74c3c" stroke-width="3.0"/>
<line x1="640.0" y1="670.0" x2="640.0" y2="685.0" stroke="#e74c3c" stroke-width="3.0"/>
<line x1="640.0" y1="685.0" x2="610.0" y2="685.0" stroke="#e74c3c" stroke-width="3.0"/>
<line x1="610.0" y1="685.0" x2="610.0" y2="677.5" stroke="#e74c3c" stroke-width="3.0"/>
<line x1="610.0" y1="677.5" x2="577.5" y2="677.5" stroke="#e74c3c" stroke-width="3.0"/>
<line x1="577.5" y1="677.5" x2="577.5" y2="695.0" stroke="#e74c3c" stroke-width="3.0"/>
<line x1="645.0" y1="669.5" x2="578.5" y2="669.5" stroke="#e74c3c" stroke-width="3.0"/>
<line x1="578.5" y1="669.5" x2="578.5" y2="694.5" stroke="#e74c3c" stroke-width="3.0"/>
<line x1="645.0" y1="669.5" x2="645.0" y2="764.5" stroke="#e74c3c" stroke-width="3.0"/>
<line x1="645.0" y1="764.5" x2="650.0" y2="764.5" stroke="#e74c3c" stroke-width="3.0"/>
<line x1="650.0" y1="669.5" x2="650.0" y2="764.5" stroke="#3498db" stroke-width="3.0"/>
<line x1="650.0" y1="764.5" x2="675.4000000000001" y2="764.5" stroke="#3498db" stroke-width="3.0"/>
<line x1="655.0" y1="670.0" x2="655.0" y2="695.0" stroke="#e74c3c" stroke-width="3.0"/>
<line x1="655.0" y1="695.0" x2="697.5" y2="695.0" stroke="#e74c3c" stroke-width="3.0"/>
<line x1="655.0" y1="669.5" x2="698.5" y2="669.5" stroke="#e74c3c" stroke-width="3.0"/>
<line x1="698.5" y1="669.5" x2="698.5" y2="694.5" stroke="#e74c3c" stroke-width="3.0"/>
<line x1="655.0" y1="669.5" x2="655.0" y2="764.5" stroke="#e74c3c" stroke-width="3.0"/>
<line x1="655.0" y1="764.5" x2="700.8" y2="764.5" stroke="#e74c3c" stroke-width="3.0"/>
<line x1="625.0" y1="629.5" x2="625.0" y2="764.5" stroke="#3498db" stroke-width="3.0"/>
<line x1="625.0" y1="764.5" x2="726.2" y2="764.5" stroke="#3498db" stroke-width="3.0"/>
<line x1="651.0" y1="462.70000000000005" x2="955.0" y2="462.70000000000005" stroke="#e74c3c" stroke-width="5.0"/>
<line x1="955.0" y1="462.70000000000005" x2="955.0" y2="659.5" stroke="#e74c3c" stroke-width="5.0"/>
<line x1="651.0" y1="462.70000000000005" x2="1235.0" y2="462.70000000000005" stroke="#e74c3c" stroke-width="5.0"/>
<line x1="1235.0" y1="462.70000000000005" x2="1235.0" y2="659.5" stroke="#e74c3c" stroke-width="5.0"/>
<line x1="651.0" y1="462.70000000000005" x2="651.0" y2="659.5" stroke="#e74c3c" stroke-width="5.0"/>
<line x1="651.0" y1="659.5" x2="675.0" y2="659.5" stroke="#e74c3c" stroke-width="5.0"/>
<line x1="258.5" y1="770.0" x2="915.0" y2="770.0" stroke="#3498db" stroke-width="5.0"/>
<line x1="915.0" y1="770.0" x2="915.0" y2="669.5" stroke="#3498db" stroke-width="5.0"/>
<line x1="258.5" y1="770.0" x2="860.5" y2="770.0" stroke="#3498db" stroke-width="5.0"/>
<line x1="860.5" y1="770.0" x2="860.5" y2="594.5" stroke="#3498db" stroke-width="5.0"/>
<line x1="258.5" y1="770.0" x2="1195.0" y2="770.0" stroke="#3498db" stroke-width="5.0"/>
<line x1="1195.0" y1="770.0" x2="1195.0" y2="669.5" stroke="#3498db" stroke-width="5.0"/>
<line x1="258.5" y1="770.0" x2="1140.5" y2="770.0" stroke="#3498db" stroke-width="5.0"/>
<line x1="1140.5" y1="770.0" x2="1140.5" y2="594.5" stroke="#3498db" stroke-width="5.0"/>
<line x1="258.5" y1="770.0" x2="635.0" y2="770.0" stroke="#3498db" stroke-width="5.0"/>
<line x1="635.0" y1="770.0" x2="635.0" y2="669.5" stroke="#3498db" stroke-width="5.0"/>
<line x1="258.5" y1="770.0" x2="580.5" y2="770.0" stroke="#3498db" stroke-width="5.0"/>
<line x1="580.5" y1="770.0" x2="580.5" y2="594.5" stroke="#3498db" stroke-width="5.0"/>
<line x1="371.59999999999997" y1="437.29999999999995" x2="955.0" y2="437.29999999999995" stroke="#e74c3c" stroke-width="3.0"/>
<line x1="955.0" y1="437.29999999999995" x2="955.0" y2="639.5" stroke="#e74c3c" stroke-width="3.0"/>
<line x1="524.0" y1="437.29999999999995" x2="905.0" y2="437.29999999999995" stroke="#e74c3c" stroke-width="3.0"/>
<line x1="905.0" y1="437.29999999999995" x2="905.0" y2="634.5" stroke="#e74c3c" stroke-width="3.0"/>
<line x1="346.2" y1="437.29999999999995" x2="920.0" y2="437.29999999999995" stroke="#3498db" stroke-width="3.0"/>
<line x1="920.0" y1="437.29999999999995" x2="920.0" y2="619.5" stroke="#3498db" stroke-width="3.0"/>
<line x1="422.40000000000003" y1="437.29999999999995" x2="1235.0" y2="437.29999999999995" stroke="#3498db" stroke-width="3.0"/>
<line x1="1235.0" y1="437.29999999999995" x2="1235.0" y2="639.5" stroke="#3498db" stroke-width="3.0"/>
<line x1="549.4" y1="437.29999999999995" x2="1185.0" y2="437.29999999999995" stroke="#e74c3c" stroke-width="3.0"/>
<line x1="1185.0" y1="437.29999999999995" x2="1185.0" y2="634.5" stroke="#e74c3c" stroke-width="3.0"/>
<line x1="397.0" y1="437.29999999999995" x2="1200.0" y2="437.29999999999995" stroke="#3498db" stroke-width="3.0"/>
<line x1="1200.0" y1="437.29999999999995" x2="1200.0" y2="619.5" stroke="#3498db" stroke-width="3.0"/>
<line x1="498.6" y1="437.29999999999995" x2="498.6" y2="639.5" stroke="#e74c3c" stroke-width="3.0"/>
<line x1="498.6" y1="639.5" x2="675.0" y2="639.5" stroke="#e74c3c" stroke-width="3.0"/>
<line x1="600.2" y1="437.29999999999995" x2="600.2" y2="634.5" stroke="#e74c3c" stroke-width="3.0"/>
<line x1="600.2" y1="634.5" x2="625.0" y2="634.5" stroke="#e74c3c" stroke-width="3.0"/>
<line x1="473.2" y1="437.29999999999995" x2="473.2" y2="619.5" stroke="#3498db" stroke-width="3.0"/>
<line x1="473.2" y1="619.5" x2="640.0" y2="619.5" stroke="#3498db" stroke-width="3.0"/>
<line x1="930.0" y1="644.5" x2="1210.0" y2="644.5" stroke="#3498db" stroke-width="3.0"/>
<line x1="930.0" y1="644.5" x2="650.0" y2="644.5" stroke="#3498db" stroke-width="3.0"/>
<rect x="974.0" y="585.2" width="32.0" height="18.5" fill="#111111" stroke="#f1c40f"/>
<rect x="854.0" y="585.2" width="32.0" height="18.5" fill="#111111" stroke="#f1c40f"/>
<rect x="1254.0" y="585.2" width="32.0" height="18.5" fill="#111111" stroke="#f1c40f"/>
<rect x="1134.0" y="585.2" width="32.0" height="18.5" fill="#111111" stroke="#f1c40f"/>
<rect x="694.0" y="585.2" width="32.0" height="18.5" fill="#111111" stroke="#f1c40f"/>
<rect x="574.0" y="585.2" width="32.0" height="18.5" fill="#111111" stroke="#f1c40f"/>
<rect x="248.0" y="754.5" width="44.0" height="31.0" fill="#111111" stroke="#f1c40f"/>
<rect x="881.9" y="743.8" width="96.2" height="41.4" fill="#111111" stroke="#f1c40f"/>
<rect x="1161.9" y="743.8" width="96.2" height="41.4" fill="#111111" stroke="#f1c40f"/>
<rect x="601.9" y="743.8" width="96.2" height="41.4" fill="#111111" stroke="#f1c40f"/>
<rect x="18.7" y="416.6" width="502.6" height="66.8" fill="#111111" stroke="#f1c40f"/>
<rect x="848.0" y="683.5" width="44.0" height="22.0" fill="#111111" stroke="#f1c40f"/>
<rect x="968.0" y="683.5" width="44.0" height="22.0" fill="#111111" stroke="#f1c40f"/>
<rect x="1128.0" y="683.5" width="44.0" height="22.0" fill="#111111" stroke="#f1c40f"/>
<rect x="1248.0" y="683.5" width="44.0" height="22.0" fill="#111111" stroke="#f1c40f"/>
<rect x="568.0" y="683.5" width="44.0" height="22.0" fill="#111111" stroke="#f1c40f"/>
<rect x="688.0" y="683.5" width="44.0" height="22.0" fill="#111111" stroke="#f1c40f"/>
<rect x="896.0" y="610.5" width="68.0" height="68.0" fill="#111111" stroke="#f1c40f"/>
<rect x="1176.0" y="610.5" width="68.0" height="68.0" fill="#111111" stroke="#f1c40f"/>
<rect x="616.0" y="610.5" width="68.0" height="68.0" fill="#111111" stroke="#f1c40f"/>
<text x="990.0" y="577.2" fill="#f5f5f5" font-size="4.0" text-anchor="middle">CZ1cp</text>
<text x="990.0" y="613.8" fill="#9a9a9a" font-size="4.0" text-anchor="middle">22nF</text>
<text x="870.0" y="577.2" fill="#f5f5f5" font-size="4.0" text-anchor="middle">CZ1v</text>
<text x="870.0" y="613.8" fill="#9a9a9a" font-size="4.0" text-anchor="middle">100nF</text>
<text x="1270.0" y="577.2" fill="#f5f5f5" font-size="4.0" text-anchor="middle">CZ2cp</text>
<text x="1270.0" y="613.8" fill="#9a9a9a" font-size="4.0" text-anchor="middle">22nF</text>
<text x="1150.0" y="577.2" fill="#f5f5f5" font-size="4.0" text-anchor="middle">CZ2v</text>
<text x="1150.0" y="613.8" fill="#9a9a9a" font-size="4.0" text-anchor="middle">100nF</text>
<text x="710.0" y="577.2" fill="#f5f5f5" font-size="4.0" text-anchor="middle">CZ3cp</text>
<text x="710.0" y="613.8" fill="#9a9a9a" font-size="4.0" text-anchor="middle">22nF</text>
<text x="590.0" y="577.2" fill="#f5f5f5" font-size="4.0" text-anchor="middle">CZ3v</text>
<text x="590.0" y="613.8" fill="#9a9a9a" font-size="4.0" text-anchor="middle">100nF</text>
<text x="270.0" y="746.5" fill="#f5f5f5" font-size="4.0" text-anchor="middle">C_BULK</text>
<text x="270.0" y="795.5" fill="#9a9a9a" font-size="4.0" text-anchor="middle">100uF</text>
<text x="930.0" y="735.8" fill="#f5f5f5" font-size="4.0" text-anchor="middle">JZ1</text>
<text x="1210.0" y="735.8" fill="#f5f5f5" font-size="4.0" text-anchor="middle">JZ2</text>
<text x="650.0" y="735.8" fill="#f5f5f5" font-size="4.0" text-anchor="middle">JZ3</text>
<text x="270.0" y="408.6" fill="#f5f5f5" font-size="4.0" text-anchor="middle">PICO</text>
<text x="870.0" y="675.5" fill="#f5f5f5" font-size="4.0" text-anchor="middle">RZ1a</text>
<text x="870.0" y="715.5" fill="#9a9a9a" font-size="4.0" text-anchor="middle">0.11</text>
<text x="990.0" y="675.5" fill="#f5f5f5" font-size="4.0" text-anchor="middle">RZ1b</text>
<text x="990.0" y="715.5" fill="#9a9a9a" font-size="4.0" text-anchor="middle">0.11</text>
<text x="1150.0" y="675.5" fill="#f5f5f5" font-size="4.0" text-anchor="middle">RZ2a</text>
<text x="1150.0" y="715.5" fill="#9a9a9a" font-size="4.0" text-anchor="middle">0.11</text>
<text x="1270.0" y="675.5" fill="#f5f5f5" font-size="4.0" text-anchor="middle">RZ2b</text>
<text x="1270.0" y="715.5" fill="#9a9a9a" font-size="4.0" text-anchor="middle">0.11</text>
<text x="590.0" y="675.5" fill="#f5f5f5" font-size="4.0" text-anchor="middle">RZ3a</text>
<text x="590.0" y="715.5" fill="#9a9a9a" font-size="4.0" text-anchor="middle">0.11</text>
<text x="710.0" y="675.5" fill="#f5f5f5" font-size="4.0" text-anchor="middle">RZ3b</text>
<text x="710.0" y="715.5" fill="#9a9a9a" font-size="4.0" text-anchor="middle">0.11</text>
<text x="930.0" y="602.5" fill="#f5f5f5" font-size="4.0" text-anchor="middle">Z1</text>
<text x="1210.0" y="602.5" fill="#f5f5f5" font-size="4.0" text-anchor="middle">Z2</text>
<text x="650.0" y="602.5" fill="#f5f5f5" font-size="4.0" text-anchor="middle">Z3</text>
<circle cx="984.5" cy="594.5" r="3.0" fill="#f5f5f5"/>
<circle cx="864.5" cy="594.5" r="3.0" fill="#f5f5f5"/>
<circle cx="1264.5" cy="594.5" r="3.0" fill="#f5f5f5"/>
<circle cx="1144.5" cy="594.5" r="3.0" fill="#f5f5f5"/>
<circle cx="704.5" cy="594.5" r="3.0" fill="#f5f5f5"/>
<circle cx="584.5" cy="594.5" r="3.0" fill="#f5f5f5"/>
<circle cx="258.5" cy="770.0" r="3.0" fill="#f5f5f5"/>
<circle cx="930.0" cy="764.5" r="3.0" fill="#f5f5f5"/>
<circle cx="1210.0" cy="764.5" r="3.0" fill="#f5f5f5"/>
<circle cx="650.0" cy="764.5" r="3.0" fill="#f5f5f5"/>
<circle cx="270.0" cy="437.3" r="3.0" fill="#f5f5f5"/>
<circle cx="858.5" cy="694.5" r="3.0" fill="#f5f5f5"/>
<circle cx="978.5" cy="694.5" r="3.0" fill="#f5f5f5"/>
<circle cx="1138.5" cy="694.5" r="3.0" fill="#f5f5f5"/>
<circle cx="1258.5" cy="694.5" r="3.0" fill="#f5f5f5"/>
<circle cx="578.5" cy="694.5" r="3.0" fill="#f5f5f5"/>
<circle cx="698.5" cy="694.5" r="3.0" fill="#f5f5f5"/>
<circle cx="905.0" cy="629.5" r="3.0" fill="#f5f5f5"/>
<circle cx="1185.0" cy="629.5" r="3.0" fill="#f5f5f5"/>
<circle cx="625.0" cy="629.5" r="3.0" fill="#f5f5f5"/>
<rect x="972.0" y="583.2" width="36.0" height="22.5" fill="none" stroke="#9a9a9a" stroke-width="0.5"/>
<rect x="852.0" y="583.2" width="36.0" height="22.5" fill="none" stroke="#9a9a9a" stroke-width="0.5"/>
<rect x="1252.0" y="583.2" width="36.0" height="22.5" fill="none" stroke="#9a9a9a" stroke-width="0.5"/>
<rect x="1132.0" y="583.2" width="36.0" height="22.5" fill="none" stroke="#9a9a9a" stroke-width="0.5"/>
<rect x="692.0" y="583.2" width="36.0" height="22.5" fill="none" stroke="#9a9a9a" stroke-width="0.5"/>
<rect x="572.0" y="583.2" width="36.0" height="22.5" fill="none" stroke="#9a9a9a" stroke-width="0.5"/>
<rect x="246.0" y="752.5" width="48.0" height="35.0" fill="none" stroke="#9a9a9a" stroke-width="0.5"/>
<rect x="879.9" y="741.8" width="100.2" height="45.4" fill="none" stroke="#9a9a9a" stroke-width="0.5"/>
<rect x="1159.9" y="741.8" width="100.2" height="45.4" fill="none" stroke="#9a9a9a" stroke-width="0.5"/>
<rect x="599.9" y="741.8" width="100.2" height="45.4" fill="none" stroke="#9a9a9a" stroke-width="0.5"/>
<rect x="16.7" y="414.6" width="506.6" height="70.8" fill="none" stroke="#9a9a9a" stroke-width="0.5"/>
<rect x="846.0" y="681.5" width="48.0" height="26.0" fill="none" stroke="#9a9a9a" stroke-width="0.5"/>
<rect x="966.0" y="681.5" width="48.0" height="26.0" fill="none" stroke="#9a9a9a" stroke-width="0.5"/>
<rect x="1126.0" y="681.5" width="48.0" height="26.0" fill="none" stroke="#9a9a9a" stroke-width="0.5"/>
<rect x="1246.0" y="681.5" width="48.0" height="26.0" fill="none" stroke="#9a9a9a" stroke-width="0.5"/>
<rect x="566.0" y="681.5" width="48.0" height="26.0" fill="none" stroke="#9a9a9a" stroke-width="0.5"/>
<rect x="686.0" y="681.5" width="48.0" height="26.0" fill="none" stroke="#9a9a9a" stroke-width="0.5"/>
<rect x="894.0" y="608.5" width="72.0" height="72.0" fill="none" stroke="#9a9a9a" stroke-width="0.5"/>
<rect x="1174.0" y="608.5" width="72.0" height="72.0" fill="none" stroke="#9a9a9a" stroke-width="0.5"/>
<rect x="614.0" y="608.5" width="72.0" height="72.0" fill="none" stroke="#9a9a9a" stroke-width="0.5"/>
</svg>