M48
METRIC,TZ
T1C0.400
%
G90
G05
T1
X0.250Y13.500
X0.250Y14.750
X0.500Y0.750
X0.500Y13.500
X0.500Y14.750
X0.500Y17.250
X0.500Y17.500
X0.500Y20.750
X0.500Y23.000
X0.500Y25.000
X0.500Y25.500
X0.500Y42.000
X0.500Y53.000
X1.250Y0.750
X1.250Y4.750
X1.250Y9.500
X1.250Y10.500
X1.250Y11.000
X1.250Y45.750
X1.250Y53.000
X1.500Y15.250
X1.580Y21.900
X2.250Y17.250
X2.250Y18.000
X2.250Y18.500
X2.250Y23.000
X2.250Y25.500
X2.750Y15.250
X2.750Y44.250
X2.880Y14.500
X2.880Y43.530
X3.000Y18.000
X3.000Y23.000
X3.000Y25.500
X3.110Y19.450
X3.500Y44.250
X3.500Y45.250
X4.000Y22.750
X4.000Y25.500
X4.120Y14.000
X4.120Y43.530
X4.300Y19.200
X4.300Y44.470
X4.750Y14.250
X4.750Y15.250
X5.000Y0.250
X5.000Y4.750
X5.000Y21.750
X5.000Y22.750
X5.000Y42.000
X5.000Y45.250
X5.000Y45.750
X5.050Y14.070
X5.050Y24.100
X5.500Y0.750
X5.500Y9.250
X5.500Y10.000
X5.500Y10.500
X5.500Y11.000
X5.650Y7.055
X6.000Y10.000
X6.000Y11.000
X6.000Y14.750
X6.000Y15.250
X6.000Y15.750
X6.000Y16.250
X6.000Y20.250
X6.000Y20.750
X6.000Y21.750
X6.250Y0.750
X6.250Y2.250
X6.250Y6.500
X6.250Y7.000
X6.250Y25.000
X6.250Y27.250
X6.500Y9.250
X6.500Y10.000
X6.500Y14.750
X6.500Y17.500
X6.500Y42.250
X6.500Y45.750
X6.750Y8.250
X6.750Y9.500
X6.750Y13.000
X6.750Y14.750
X6.750Y23.000
X6.750Y24.000
X6.750Y25.000
X6.950Y11.950
X6.950Y21.900
X7.250Y9.250
X7.250Y9.500
X7.250Y10.000
X7.500Y2.250
X7.500Y6.500
X7.500Y13.000
X7.500Y18.000
X7.500Y25.500
X7.500Y40.250
X7.680Y7.055
X7.750Y19.000
X7.750Y23.000
X8.000Y12.750
X8.000Y14.750
X8.000Y17.250
X8.250Y6.500
X8.250Y7.750
X8.250Y10.000
X8.250Y11.000
X8.250Y40.250
X8.250Y40.750
X8.500Y7.500
X8.500Y7.750
X8.500Y9.250
X8.500Y9.500
X8.500Y10.000
X8.500Y13.500
X8.500Y15.250
X8.750Y7.000
X8.750Y11.000
X8.750Y12.750
X8.750Y15.750
X8.750Y16.250
X8.750Y20.250
X8.750Y25.000
X8.750Y39.250
X8.750Y40.250
X8.750Y48.000
X8.750Y48.500
X8.800Y2.295
X8.800Y7.055
X8.800Y11.100
X8.800Y14.930
X8.800Y15.400
X8.800Y15.800
X8.800Y16.350
X8.800Y18.500
X8.800Y19.500
X8.800Y21.900
X8.800Y22.000
X8.800Y23.000
X8.800Y27.300
X8.800Y32.000
X8.800Y35.700
X8.800Y36.000
X8.800Y37.610
X8.800Y42.200
X8.800Y44.000
X8.800Y50.500
X8.800Y51.400
X8.800Y52.200
X9.000Y6.500
X9.000Y7.000
X9.250Y6.500
X9.250Y7.500
X9.250Y8.000
X9.250Y13.000
X9.250Y15.250
X9.250Y21.000
X9.500Y7.000
X9.500Y17.250
X9.600Y7.055
X9.600Y11.100
X9.600Y19.200
X9.600Y22.000
X9.600Y22.050
X9.600Y23.000
X9.600Y24.100
X9.600Y40.300
X9.600Y42.200
X9.750Y7.750
X9.750Y8.000
X9.750Y15.250
X9.750Y25.500
X10.000Y40.250
X10.000Y42.250
X10.250Y6.500
X10.250Y7.000
X10.250Y20.500
X10.500Y13.500
X10.500Y14.000
X10.550Y11.000
X10.750Y7.000
X10.750Y7.750
X11.250Y7.055
X11.250Y12.050
X11.250Y14.000
X11.250Y15.250
X11.250Y40.300
X11.365Y40.300
X11.365Y48.500
X11.365Y50.600
X11.580Y19.450
X11.750Y6.500
X11.750Y7.000
X11.750Y13.500
X12.000Y18.000
X12.000Y20.500
X12.250Y48.000
X12.250Y49.750
X12.500Y14.000
X12.500Y16.500
X12.500Y41.750
X12.635Y27.300
X12.635Y44.000
X12.750Y6.500
X12.750Y7.000
X12.750Y10.000
X12.750Y11.000
X12.770Y19.450
X12.850Y7.055
X13.100Y19.200
X13.250Y13.500
X13.250Y14.000
X13.250Y20.500
X13.250Y21.000
X13.250Y24.750
X13.250Y25.500
X13.250Y28.250
X13.250Y45.500
X13.250Y48.000
X13.250Y49.250
X13.250Y49.500
X13.250Y49.750
X13.270Y7.055
X13.500Y15.250
X13.500Y16.500
X13.500Y17.000
X13.750Y7.000
X13.750Y8.500
X13.750Y10.000
X13.750Y11.000
X13.750Y12.750
X13.750Y13.500
X13.750Y27.250
X14.000Y27.250
X14.000Y27.750
X14.250Y6.500
X14.250Y7.000
X14.250Y8.000
X14.250Y20.500
X14.250Y27.250
X14.500Y14.500
X14.500Y18.250
X14.500Y39.750
X14.500Y40.750
X14.750Y15.250
X14.750Y18.000
X15.000Y6.000
X15.000Y6.500
X15.000Y7.000
X15.000Y18.250
X15.000Y20.500
X15.000Y27.250
X15.200Y11.000
X15.500Y8.000
X15.500Y15.250
X15.500Y20.500
X15.500Y27.750
X15.750Y17.500
X15.750Y18.500
X15.810Y40.300
X15.900Y19.200
X16.000Y24.750
X16.000Y25.500
X16.000Y28.250
X16.250Y2.250
X16.250Y3.250
X16.250Y5.500
X16.250Y6.500
X16.250Y13.000
X16.250Y15.000
X16.320Y7.055
X16.445Y8.400
X16.445Y40.300
X16.500Y14.000
X16.500Y15.250
X16.750Y15.750
X16.750Y18.500
X16.750Y21.000
X16.850Y21.900
X17.500Y0.750
X17.500Y2.250
X17.500Y3.250
X17.500Y5.500
X17.500Y6.000
X17.500Y6.500
X17.500Y7.000
X17.500Y8.000
X17.500Y8.500
X17.500Y12.250
X17.500Y13.500
X17.500Y14.500
X18.000Y0.250
X18.000Y12.250
X18.000Y16.500
X18.000Y20.500
X18.250Y12.750
X18.250Y14.000
X18.250Y14.500
X18.250Y15.250
X18.250Y16.500
X18.430Y7.055
X18.500Y18.000
X18.500Y18.500
X18.500Y19.200
X18.500Y19.250
X18.500Y41.250
X18.500Y41.750
X18.750Y12.250
X18.750Y15.250
X19.000Y10.500
X19.000Y12.000
X19.000Y12.250
X19.000Y12.750
X19.000Y13.500
X19.000Y16.500
X19.150Y19.200
X19.200Y7.055
X19.250Y42.000
X19.250Y42.500
X19.250Y43.000
X19.500Y12.500
X19.500Y14.500
X19.500Y15.000
X19.500Y15.250
X19.500Y15.750
X19.500Y16.500
X19.500Y17.000
X19.500Y18.000
X19.500Y18.500
X19.500Y20.500
X19.500Y45.500
X19.500Y45.750
X19.500Y49.250
X19.500Y49.500
X20.000Y14.000
X20.000Y14.500
X20.000Y42.000
X20.000Y42.500
X20.000Y43.000
X20.000Y53.000
X20.250Y13.500
X20.250Y14.500
X20.250Y21.000
X20.250Y24.750
X20.250Y25.500
X20.430Y7.055
X20.750Y20.500
X20.750Y31.000
X21.000Y11.250
X21.000Y12.000
X21.250Y20.500
X21.250Y21.000
X21.250Y21.500
X21.500Y11.250
X21.500Y13.000
X21.500Y43.000
X21.500Y53.000
X22.000Y7.500
X22.000Y8.500
X22.000Y11.250
X22.000Y12.750
X22.100Y7.055
X22.250Y21.000
X22.250Y21.500
X22.250Y22.000
X22.500Y0.750
X22.500Y7.500
X22.500Y8.500
X22.550Y16.000
X22.550Y19.450
X22.550Y32.000
X22.550Y34.430
X22.550Y36.000
X22.550Y36.970
X22.550Y44.000
X22.550Y48.500
X22.550Y49.800
X22.550Y50.500
X22.550Y50.600
X22.550Y51.400
X22.550Y52.200
X22.600Y7.055
X22.750Y24.750
X22.750Y31.000
X22.750Y39.250
X22.750Y41.250
X23.000Y11.250
X23.000Y12.500
X23.250Y17.000
X23.250Y39.750
X23.250Y53.000
T0
M30