G04 ocdcircuit*
%FSLAX46Y46*%
%MOMM*%
%ADD10C,0.400*%
D10*
X2.7500Y44.2500D02*
X3.5000Y44.2500D01*
X3.5000Y44.2500D02*
X3.5000Y45.2500D01*
X3.5000Y45.2500D02*
X5.0000Y45.2500D01*
X5.0000Y45.2500D02*
X5.0000Y42.0000D01*
X5.0000Y42.0000D02*
X0.5000Y42.0000D01*
X0.5000Y42.0000D02*
X0.5000Y17.2500D01*
X0.5000Y17.2500D02*
X9.5000Y17.2500D01*
X9.5000Y17.2500D02*
X9.5000Y14.5000D01*
X2.7500Y15.2500D02*
X1.5000Y15.2500D01*
X1.5000Y15.2500D02*
X1.5000Y14.0000D01*
X15.7500Y17.5000D02*
X15.7500Y18.5000D01*
X15.7500Y18.5000D02*
X16.7500Y18.5000D01*
X16.7500Y18.5000D02*
X16.7500Y21.0000D01*
X16.7500Y21.0000D02*
X20.2500Y21.0000D01*
X20.2500Y21.0000D02*
X20.2500Y25.5000D01*
X20.2500Y25.5000D02*
X16.0000Y25.5000D01*
X16.0000Y25.5000D02*
X16.0000Y28.2500D01*
X16.0000Y28.2500D02*
X13.2500Y28.2500D01*
X13.2500Y28.2500D02*
X13.2500Y21.0000D01*
X13.2500Y21.0000D02*
X9.2500Y21.0000D01*
X9.2500Y21.0000D02*
X9.2500Y15.2500D01*
X9.2500Y15.2500D02*
X8.5000Y15.2500D01*
X8.5000Y15.2500D02*
X8.5000Y13.5000D01*
X8.5000Y13.5000D02*
X10.5000Y13.5000D01*
X10.5000Y13.5000D02*
X10.5000Y14.0000D01*
X10.5000Y14.0000D02*
X12.5000Y14.0000D01*
X12.5000Y14.0000D02*
X12.5000Y16.5000D01*
X12.5000Y16.5000D02*
X13.5000Y16.5000D01*
X13.5000Y16.5000D02*
X13.5000Y17.0000D01*
X13.5000Y17.0000D02*
X13.5000Y15.2500D01*
X13.5000Y15.2500D02*
X11.2500Y15.2500D01*
X11.2500Y15.2500D02*
X11.2500Y14.0000D01*
X11.2500Y14.0000D02*
X10.5000Y14.0000D01*
X10.5000Y14.0000D02*
X10.5000Y13.5000D01*
X10.5000Y13.5000D02*
X8.5000Y13.5000D01*
X8.5000Y13.5000D02*
X8.5000Y15.2500D01*
X8.5000Y15.2500D02*
X9.7500Y15.2500D01*
X9.7500Y15.2500D02*
X9.7500Y25.5000D01*
X9.7500Y25.5000D02*
X13.2500Y25.5000D01*
X13.2500Y25.5000D02*
X13.2500Y28.2500D01*
X13.2500Y28.2500D02*
X16.0000Y28.2500D01*
X16.0000Y28.2500D02*
X16.0000Y24.7500D01*
X16.0000Y24.7500D02*
X20.2500Y24.7500D01*
X20.2500Y24.7500D02*
X20.2500Y21.0000D01*
X20.2500Y21.0000D02*
X16.7500Y21.0000D01*
X16.7500Y21.0000D02*
X16.7500Y15.7500D01*
X16.7500Y15.7500D02*
X16.5000Y15.7500D01*
X2.8800Y43.5300D02*
X2.8800Y14.5000D01*
X2.8800Y14.5000D02*
X13.5700Y14.5000D01*
X11.7500Y7.0000D02*
X11.7500Y6.5000D01*
X11.7500Y6.5000D02*
X12.7500Y6.5000D01*
X12.7500Y6.5000D02*
X12.7500Y7.0000D01*
X12.7500Y7.0000D02*
X12.7500Y6.5000D01*
X12.7500Y6.5000D02*
X8.2500Y6.5000D01*
X8.2500Y6.5000D02*
X8.2500Y7.7500D01*
X8.2500Y7.7500D02*
X8.5000Y7.7500D01*
X8.5000Y7.7500D02*
X8.5000Y10.0000D01*
X8.5000Y10.0000D02*
X8.2500Y10.0000D01*
X8.2500Y10.0000D02*
X5.5000Y10.0000D01*
X11.7500Y7.0000D02*
X11.7500Y6.5000D01*
X11.7500Y6.5000D02*
X12.7500Y6.5000D01*
X12.7500Y6.5000D02*
X12.7500Y7.0000D01*
X12.7500Y7.0000D02*
X12.7500Y6.5000D01*
X12.7500Y6.5000D02*
X8.2500Y6.5000D01*
X8.2500Y6.5000D02*
X8.2500Y7.7500D01*
X8.2500Y7.7500D02*
X8.5000Y7.7500D01*
X8.5000Y7.7500D02*
X8.5000Y10.0000D01*
X8.5000Y10.0000D02*
X8.2500Y10.0000D01*
X8.2500Y10.0000D02*
X7.2500Y10.0000D01*
X7.2500Y10.0000D02*
X7.2500Y9.2500D01*
X7.2500Y9.2500D02*
X5.5000Y9.2500D01*
X5.5000Y9.2500D02*
X5.5000Y10.0000D01*
X5.5000Y10.0000D02*
X6.5000Y10.0000D01*
X6.5000Y10.0000D02*
X6.5000Y9.2500D01*
X6.5000Y9.2500D02*
X8.5000Y9.2500D01*
X8.5000Y9.2500D02*
X8.5000Y7.7500D01*
X8.5000Y7.7500D02*
X8.2500Y7.7500D01*
X8.2500Y7.7500D02*
X8.2500Y6.5000D01*
X8.2500Y6.5000D02*
X11.7500Y6.5000D01*
X11.7500Y6.5000D02*
X11.7500Y13.5000D01*
X11.7500Y13.5000D02*
X13.2500Y13.5000D01*
X13.2500Y13.5000D02*
X13.2500Y14.0000D01*
X13.2500Y14.0000D02*
X16.5000Y14.0000D01*
X16.5000Y14.0000D02*
X16.5000Y15.2500D01*
X16.5000Y15.2500D02*
X18.2500Y15.2500D01*
X18.2500Y15.2500D02*
X18.2500Y16.5000D01*
X18.2500Y16.5000D02*
X18.0000Y16.5000D01*
X18.0000Y16.5000D02*
X18.0000Y20.5000D01*
X18.0000Y20.5000D02*
X20.7500Y20.5000D01*
X20.7500Y20.5000D02*
X20.7500Y31.0000D01*
X20.7500Y31.0000D02*
X22.7500Y31.0000D01*
X22.7500Y31.0000D02*
X22.7500Y41.2500D01*
X22.7500Y41.2500D02*
X18.5000Y41.2500D01*
X18.5000Y41.2500D02*
X18.5000Y41.7500D01*
X18.5000Y41.7500D02*
X12.5000Y41.7500D01*
X12.5000Y41.7500D02*
X12.5000Y40.2500D01*
X22.5500Y19.4500D02*
X12.7700Y19.4500D01*
X12.7700Y19.4500D02*
X12.7700Y17.2000D01*
X22.5500Y19.4500D02*
X11.5800Y19.4500D01*
X11.5800Y19.4500D02*
X11.5800Y22.0000D01*
X22.5500Y19.4500D02*
X22.5500Y16.0000D01*
X22.5500Y16.0000D02*
X21.2000Y16.0000D01*
X22.5500Y19.4500D02*
X22.5500Y34.4300D01*
X22.5500Y34.4300D02*
X19.0350Y34.4300D01*
X22.5500Y19.4500D02*
X22.5500Y36.9700D01*
X22.5500Y36.9700D02*
X19.0350Y36.9700D01*
X22.5500Y19.4500D02*
X22.5500Y36.0000D01*
X22.5500Y36.0000D02*
X21.0800Y36.0000D01*
X22.5500Y19.4500D02*
X22.5500Y32.0000D01*
X22.5500Y32.0000D02*
X21.0800Y32.0000D01*
X22.5500Y19.4500D02*
X22.5500Y51.4000D01*
X22.5500Y51.4000D02*
X13.4200Y51.4000D01*
X22.5500Y19.4500D02*
X22.5500Y49.8000D01*
X22.5500Y49.8000D02*
X10.5800Y49.8000D01*
X22.5500Y19.4500D02*
X22.5500Y50.6000D01*
X22.5500Y50.6000D02*
X10.5800Y50.6000D01*
X22.5500Y19.4500D02*
X22.5500Y52.2000D01*
X22.5500Y52.2000D02*
X10.5800Y52.2000D01*
X22.5500Y19.4500D02*
X22.5500Y48.5000D01*
X22.5500Y48.5000D02*
X15.0300Y48.5000D01*
X22.5500Y19.4500D02*
X22.5500Y48.5000D01*
X22.5500Y48.5000D02*
X9.8300Y48.5000D01*
X22.5500Y19.4500D02*
X22.5500Y50.5000D01*
X22.5500Y50.5000D02*
X8.3800Y50.5000D01*
X22.5500Y19.4500D02*
X22.5500Y50.5000D01*
X22.5500Y50.5000D02*
X14.7800Y50.5000D01*
X22.5500Y19.4500D02*
X22.5500Y44.0000D01*
X22.5500Y44.0000D02*
X8.1900Y44.0000D01*
X22.5500Y19.4500D02*
X3.1100Y19.4500D01*
X3.1100Y19.4500D02*
X3.1100Y8.4000D01*
X13.7500Y7.0000D02*
X13.7500Y13.5000D01*
X13.7500Y13.5000D02*
X17.5000Y13.5000D01*
X17.5000Y13.5000D02*
X17.5000Y14.5000D01*
X17.5000Y14.5000D02*
X17.5000Y12.2500D01*
X17.5000Y12.2500D02*
X19.0000Y12.2500D01*
X19.0000Y12.2500D02*
X19.0000Y12.0000D01*
X19.0000Y12.0000D02*
X21.0000Y12.0000D01*
X21.0000Y12.0000D02*
X21.0000Y11.2500D01*
X21.0000Y11.2500D02*
X21.0000Y8.5000D01*
M02*