G04 ocdcircuit*
%FSLAX46Y46*%
%MOMM*%
%ADD10C,0.400*%
D10*
X13.7500Y27.2500D02*
X14.0000Y27.2500D01*
X14.0000Y27.2500D02*
X14.0000Y27.7500D01*
X14.0000Y27.7500D02*
X15.5000Y27.7500D01*
X15.5000Y27.7500D02*
X15.5000Y20.5000D01*
X15.5000Y20.5000D02*
X15.0000Y20.5000D01*
X15.0000Y20.5000D02*
X15.0000Y18.2500D01*
X15.0000Y18.2500D02*
X14.5000Y18.2500D01*
X14.5000Y18.2500D02*
X14.5000Y14.5000D01*
X14.5000Y14.5000D02*
X14.2500Y14.5000D01*
X6.2500Y27.2500D02*
X6.2500Y25.0000D01*
X6.2500Y25.0000D02*
X8.7500Y25.0000D01*
X8.7500Y25.0000D02*
X8.7500Y16.2500D01*
X8.7500Y16.2500D02*
X6.0000Y16.2500D01*
X6.0000Y16.2500D02*
X6.0000Y15.2500D01*
X6.0000Y15.2500D02*
X4.7500Y15.2500D01*
X4.7500Y15.2500D02*
X4.7500Y14.2500D01*
X4.7500Y14.2500D02*
X4.7500Y15.2500D01*
X4.7500Y15.2500D02*
X7.0000Y15.2500D01*
X11.3650Y40.3000D02*
X11.3650Y50.6000D01*
X11.3650Y50.6000D02*
X13.4200Y50.6000D01*
X11.3650Y40.3000D02*
X11.3650Y48.5000D01*
X11.3650Y48.5000D02*
X14.1700Y48.5000D01*
X11.3650Y40.3000D02*
X15.8100Y40.3000D01*
X15.8100Y40.3000D02*
X15.8100Y44.0000D01*
X7.5000Y40.2500D02*
X8.2500Y40.2500D01*
X8.2500Y40.2500D02*
X8.2500Y40.7500D01*
X8.2500Y40.7500D02*
X14.5000Y40.7500D01*
X14.5000Y40.7500D02*
X14.5000Y39.7500D01*
X14.5000Y39.7500D02*
X23.2500Y39.7500D01*
X23.2500Y39.7500D02*
X23.2500Y17.0000D01*
X23.2500Y17.0000D02*
X19.5000Y17.0000D01*
X19.5000Y17.0000D02*
X19.5000Y15.2500D01*
X19.5000Y15.2500D02*
X18.7500Y15.2500D01*
X18.7500Y15.2500D02*
X18.7500Y12.2500D01*
X18.7500Y12.2500D02*
X18.0000Y12.2500D01*
X18.0000Y12.2500D02*
X18.0000Y0.2500D01*
X18.0000Y0.2500D02*
X5.0000Y0.2500D01*
X5.0000Y0.2500D02*
X5.0000Y4.7500D01*
X5.0000Y4.7500D02*
X1.2500Y4.7500D01*
X1.2500Y4.7500D02*
X1.2500Y9.5000D01*
X1.2500Y9.5000D02*
X6.7500Y9.5000D01*
X6.7500Y9.5000D02*
X6.7500Y8.2500D01*
X6.7500Y8.2500D02*
X8.0000Y8.2500D01*
X4.3000Y19.2000D02*
X19.1500Y19.2000D01*
X19.1500Y19.2000D02*
X19.1500Y23.9500D01*
X4.3000Y19.2000D02*
X18.5000Y19.2000D01*
X18.5000Y19.2000D02*
X18.5000Y17.5500D01*
X4.3000Y19.2000D02*
X15.9000Y19.2000D01*
X15.9000Y19.2000D02*
X15.9000Y19.4500D01*
X4.3000Y19.2000D02*
X13.1000Y19.2000D01*
X13.1000Y19.2000D02*
X13.1000Y19.5000D01*
X4.3000Y19.2000D02*
X4.3000Y44.4700D01*
X4.3000Y44.4700D02*
X4.1200Y44.4700D01*
X10.7500Y7.0000D02*
X10.7500Y7.7500D01*
X10.7500Y7.7500D02*
X9.7500Y7.7500D01*
X9.7500Y7.7500D02*
X9.7500Y8.0000D01*
X9.7500Y8.0000D02*
X9.2500Y8.0000D01*
X9.2500Y8.0000D02*
X9.2500Y13.0000D01*
X9.2500Y13.0000D02*
X6.7500Y13.0000D01*
X6.7500Y13.0000D02*
X6.7500Y14.7500D01*
X6.7500Y14.7500D02*
X6.5000Y14.7500D01*
X6.5000Y14.7500D02*
X6.5000Y17.5000D01*
X6.5000Y17.5000D02*
X0.5000Y17.5000D01*
X0.5000Y17.5000D02*
X0.5000Y42.0000D01*
X0.5000Y42.0000D02*
X5.0000Y42.0000D01*
X5.0000Y42.0000D02*
X5.0000Y45.7500D01*
X5.0000Y45.7500D02*
X1.2500Y45.7500D01*
X1.2500Y45.7500D02*
X1.2500Y53.0000D01*
X1.2500Y53.0000D02*
X23.2500Y53.0000D01*
X23.2500Y53.0000D02*
X23.2500Y17.0000D01*
X23.2500Y17.0000D02*
X19.5000Y17.0000D01*
X19.5000Y17.0000D02*
X19.5000Y14.5000D01*
X19.5000Y14.5000D02*
X19.5000Y12.5000D01*
X19.5000Y12.5000D02*
X23.0000Y12.5000D01*
X23.0000Y12.5000D02*
X23.0000Y11.2500D01*
X23.0000Y11.2500D02*
X23.0000Y8.5000D01*
M02*