M48
METRIC,TZ
T1C0.400
%
G90
G05
T1
X2.790Y24.065
X2.790Y25.335
X2.790Y26.605
X2.790Y27.875
X2.790Y29.145
X2.790Y30.415
X2.790Y31.685
X2.790Y32.955
X2.790Y34.225
X12.369Y24.065
X12.369Y25.335
X12.369Y26.605
X12.369Y27.875
X12.369Y29.145
X12.369Y30.415
X12.369Y31.685
X12.369Y32.955
X12.369Y34.225
X13.501Y3.036
X13.501Y4.306
X13.501Y5.576
X13.501Y6.846
X13.501Y8.116
X13.501Y9.386
X13.501Y10.656
X21.586Y3.036
X21.586Y4.306
X21.586Y5.576
X21.586Y6.846
X21.586Y8.116
X21.586Y9.386
X21.586Y10.656
T0
M30