G04 ocdcircuit*
%FSLAX46Y46*%
%MOMM*%
%ADD10C,0.400*%
D10*
X12.3690Y24.0645D03*
X12.3690Y25.3345D03*
X12.3690Y26.6045D03*
X12.3690Y27.8745D03*
X12.3690Y29.1445D03*
X12.3690Y30.4145D03*
X12.3690Y31.6845D03*
X12.3690Y32.9545D03*
X12.3690Y34.2245D03*
X13.5009Y3.0358D03*
X13.5009Y4.3058D03*
X13.5009Y5.5758D03*
X13.5009Y6.8458D03*
X13.5009Y8.1158D03*
X13.5009Y9.3858D03*
X13.5009Y10.6558D03*
X2.7904Y17.5516D03*
X2.7904Y20.0916D03*
X2.7904Y22.6316D03*
X2.7904Y25.1716D03*
X2.7904Y27.7116D03*
X2.7904Y30.2516D03*
X2.7904Y32.7916D03*
X2.7904Y35.3316D03*
X2.7904Y37.8716D03*
X21.5863Y2.7717D03*
X21.5863Y5.3117D03*
X21.5863Y7.8517D03*
X21.5863Y10.3917D03*
X21.5863Y12.9317D03*
X21.5863Y15.4717D03*
X21.5863Y18.0117D03*
X12.3690Y32.9545D02*
X2.7904Y32.9545D01*
X2.7904Y32.9545D02*
X2.7904Y35.3316D01*
X12.3690Y26.6045D02*
X2.7904Y26.6045D01*
X2.7904Y26.6045D02*
X2.7904Y22.6316D01*
X12.3690Y29.1445D02*
X2.7904Y29.1445D01*
X2.7904Y29.1445D02*
X2.7904Y27.7116D01*
X13.5009Y5.5758D02*
X21.5863Y5.5758D01*
X21.5863Y5.5758D02*
X21.5863Y7.8517D01*
X13.5009Y8.1158D02*
X21.5863Y8.1158D01*
X21.5863Y8.1158D02*
X21.5863Y12.9317D01*
X13.5009Y9.3858D02*
X21.5863Y9.3858D01*
X21.5863Y9.3858D02*
X21.5863Y15.4717D01*
X12.3690Y30.4145D02*
X2.7904Y30.4145D01*
X2.7904Y30.4145D02*
X2.7904Y30.2516D01*
X12.3690Y31.6845D02*
X2.7904Y31.6845D01*
X2.7904Y31.6845D02*
X2.7904Y32.7916D01*
X13.5009Y4.3058D02*
X21.5863Y4.3058D01*
X21.5863Y4.3058D02*
X21.5863Y5.3117D01*
X13.5009Y3.0358D02*
X21.5863Y3.0358D01*
X21.5863Y3.0358D02*
X21.5863Y2.7717D01*
X12.3690Y25.3345D02*
X2.7904Y25.3345D01*
X2.7904Y25.3345D02*
X2.7904Y20.0916D01*
M02*